<svg xmlns="http://www.w3.org/2000/svg" viewBox="0 0 52 52"><path d="M26 0C11.7 0 0 11.7 0 26c0 4.9 1.4 9.6 3.9 13.8C2.9 43.4 1.1 50.2 1 50.2c-0.1 0.4 0 0.7 0.3 1 0.3 0.3 0.6 0.3 1 0.2L12.6 48.3C16.6 50.7 21.3 52 26 52c14.3 0 26-11.7 26-26S40.3 0 26 0zM26 50c-4.5 0-8.9-1.3-12.7-3.7 -0.2-0.1-0.3-0.2-0.5-0.2 -0.1 0-0.2 0-0.3 0l-9 2.8c0.7-2.4 1.8-6.7 2.5-9.1 0.1-0.3 0-0.6-0.1-0.8C3.3 35.2 2 30.7 2 26 2 12.8 12.8 2 26 2s24 10.8 24 24S39.2 50 26 50z"/><path d="M43 32.1c-1.8-1-3.4-2.1-4.6-2.8 -0.9-0.6-1.5-1-2-1.2 -1.3-0.6-2.3-0.2-2.7 0.2 0 0-0.1 0.1-0.1 0.2 -1.3 2-3.1 4-3.6 4.1 -0.6-0.1-3.4-1.7-6.1-4 -2.8-2.4-4.6-4.6-4.9-6.1C20.8 20.5 21.5 19.3 21.5 18c0-1.4-3.2-7.1-3.8-7.7 -0.6-0.6-1.9-0.7-3.9-0.3 -0.2 0-0.4 0.1-0.5 0.3 -0.2 0.2-5.9 6-3.2 13.1 3 7.7 10.6 16.7 20.3 18.1 1.1 0.2 2.1 0.2 3.1 0.2 5.7 0 9.1-2.9 10-8.6C43.6 32.7 43.4 32.3 43 32.1zM30.6 39.5c-10.3-1.5-16.7-11.7-18.7-16.9 -2-5.1 1.7-9.7 2.6-10.7 0.7-0.1 1.5-0.2 1.8-0.1 0.7 0.9 3 5.4 3.1 6.2 0 0.5-0.2 1.3-2.2 3.3C17.1 21.5 17 21.7 17 22c0 5.2 11 12.5 13 12.5 1.7 0 3.9-2.9 5.2-4.7 0.1 0 0.2 0 0.4 0.1 0.4 0.2 1 0.6 1.8 1.1 1 0.7 2.4 1.6 4.1 2.5C40.6 37.1 38.6 40.7 30.6 39.5z"/></svg>

