<svg xmlns="http://www.w3.org/2000/svg" viewBox="0 0 512 512"><path d="M420.7 297.5c-1.2-9.9-6.8-14.2-11.3-16 -6.8-2.8-19.4-4.1-51.1 14.6 2.9-11.9 1.7-24.8-3.8-36.3 10.9-13.6 23.3-32.3 21.6-46.2 -1.3-10.1-6.9-14.3-11.4-16.2 -25.6-10.4-83.8 36.3-105.5 53.6 0.7-7.5-0.3-15.2-3.1-22.4 10.6-13 23.6-31.8 21.9-45.7 -1.3-10.2-7.4-14.1-11-15.6 -14.5-5.9-38 7.1-54.4 17.3 -24.7 15.5-24.1 16.1-194.7 153C6.6 346.9 0 360.6 0 375.4c0 16.2 0 90.4 0 106.9C0 498.7 13.3 512 29.7 512H45.8c4.1 0 7.5-3.4 7.5-7.5 0-4.1-3.4-7.5-7.5-7.5H29.7c-8.1 0-14.7-6.6-14.7-14.7v-15.9l209.3-167.9c6.4 36.2 46.9 37.9 70 20.9 14.5-10.7 35.6-31.5 49.2-46.6 4.1 14.8-0.8 31.2-13.3 41.2 -0.1 0.1-31.2 25.1-228.1 183H80.8c-4.1 0-7.5 3.4-7.5 7.5s3.4 7.5 7.5 7.5c34.7 0 124.2 0 158.9 0 13.9 0 27.5-4.8 38.3-13.5l52.6-42.2c3.2-2.6 3.7-7.3 1.2-10.5 -2.6-3.2-7.3-3.7-10.5-1.2l-52.6 42.2c-8.2 6.6-18.4 10.2-28.9 10.2H126.1l144-115.6c1.3 7.2 3.7 12.6 6.4 16.4 11.3 16.1 37.7 18.1 56.7 7.9 11.5-6.2 33.1-27.1 42.2-36.3 4.2 15.3-0.9 32.3-13.7 42.6l-13.2 10.6c-3.2 2.6-3.7 7.3-1.2 10.5 2.6 3.2 7.3 3.7 10.5 1.2l13.2-10.6c19.9-16 26.2-43.7 15.8-66.5C396.1 347.3 423.2 317.4 420.7 297.5zM220.8 197.3c30.1-18.8 39.2-16.7 40.7-16.1 0.4 0.2 1.4 0.6 1.7 3.6 2.4 19.2-56.9 76.7-73.1 87.4 -13.8 8.9-31.7 6.6-37.5-1.2 -4.2-5.7-4.3-14.2-4.7-18.3C179.6 227.4 197.1 212.1 220.8 197.3zM226.2 277.6c-12.6 10.1-199.3 159.6-211.2 169.2v-71.4c0-10.2 4.5-19.7 12.5-26l106.6-85.5c2.8 14.6 10 22.2 20.6 26.3 9.9 3.8 22.2 4.1 33.8-0.4 16.2-6.2 44.2-34.9 55.8-47.6C247.2 265.6 227.9 275.6 226.2 277.6zM285.6 307.1c-15.2 11.2-36.8 9.2-43.1-1.5 -3-5.1-4.1-12.6-4.1-18.5 32.3-26 52.3-43.2 77.4-58.8 32.1-20 41.9-17.7 43.5-17.1 0.6 0.2 1.7 0.7 2.1 4.1C363.9 236.1 302.8 294.5 285.6 307.1zM328.9 390.9c-12.4 8-33.6 8.9-40.6-2.6 -3.2-5.3-4.1-13.1-4.2-18.1 40.5-32.3 52.7-43.2 76.6-58 31.8-19.7 41.4-17.5 43.1-16.8 0.5 0.2 1.6 0.7 2 4C408.4 320 344.7 380.7 328.9 390.9z"/><path d="M504.5 40.5c4.1 0 7.5-3.4 7.5-7.5V20.2C512 9 503 0 491.8 0h-69.6c-11.1 0-20.2 9-20.2 20.2v47.6c0 10.1 6.8 19 16.4 21.8l15.8 4.5v62.1c0 4.6 1.4 8.8 3.8 12.3 -1 17.6-6.5 54.8-33.2 77.1 -7.3 6.1-7.2 17.3 0.2 23.4 12.9 9.5 17 17.2 27.7 17.2 7.3 0 14-4 17.3-10.6 8-16 21.5-50.7 22.6-105.4 3.1-3.8 5-8.6 5-13.9v-49.7c3.5 0.3 14.7 7.4 26-1.1 5.2-4 8.2-10 8.2-16.5V68c0-4.1-3.4-7.5-7.5-7.5s-7.5 3.4-7.5 7.5v20.8c0 1.8-0.8 3.5-2.3 4.6 -3.8 2.9-6.5-0.1-22.4-4 -9.7-2.8-39.7-11.3-49.7-14.2 -3.3-0.9-5.5-3.9-5.5-7.3V20.2c0-2.8 2.4-5.2 5.2-5.2h69.6c2.8 0 5.2 2.4 5.2 5.2v12.8C497 37.1 500.4 40.5 504.5 40.5zM436.7 268.7c-1.2 2.5-4.5 3.1-6.6 1.4l-15.5-12.7c-0.1-0.1-0.1-0.3-0.1-0.3 23.2-19.4 34.6-49.4 37.8-79.5 1.7 0.3 3.4 0.4 5.1 0.3C455.3 224.9 443.7 254.6 436.7 268.7zM449.2 98.3l13.5 3.8v54c0 2-0.9 3.8-2.3 5.1 -4.5 3.8-11.1 0.6-11.1-5.1V98.3z"/></svg>
