<svg xmlns="http://www.w3.org/2000/svg" viewBox="0 0 512 512"><path d="M400 152H256c-5.5 0-10 4.5-10 10s4.5 10 10 10h144c5.5 0 10-4.5 10-10S405.5 152 400 152z"/><path d="M365 202.9c-1.9-1.9-4.4-2.9-7.1-2.9s-5.2 1.1-7.1 2.9c-1.9 1.9-2.9 4.4-2.9 7.1s1.1 5.2 2.9 7.1 4.4 2.9 7.1 2.9 5.2-1.1 7.1-2.9c1.9-1.9 2.9-4.4 2.9-7.1S366.9 204.8 365 202.9z"/><path d="M263.1 45.9c-1.9-1.9-4.4-2.9-7.1-2.9s-5.2 1.1-7.1 2.9c-1.9 1.9-2.9 4.4-2.9 7.1s1.1 5.2 2.9 7.1c1.9 1.9 4.4 2.9 7.1 2.9s5.2-1.1 7.1-2.9c1.9-1.9 2.9-4.4 2.9-7.1S264.9 47.8 263.1 45.9z"/><path d="M315.9 200h-59.9c-5.5 0-10 4.5-10 10s4.5 10 10 10h59.9c5.5 0 10-4.5 10-10S321.4 200 315.9 200z"/><path d="M400 260H256c-5.5 0-10 4.5-10 10s4.5 10 10 10h144c5.5 0 10-4.5 10-10S405.5 260 400 260z"/><path d="M365 310.9c-1.9-1.9-4.4-2.9-7.1-2.9s-5.2 1.1-7.1 2.9c-1.9 1.9-2.9 4.4-2.9 7.1s1.1 5.2 2.9 7.1 4.4 2.9 7.1 2.9 5.2-1.1 7.1-2.9c1.9-1.9 2.9-4.4 2.9-7.1S366.9 312.8 365 310.9z"/><path d="M315.9 308h-59.9c-5.5 0-10 4.5-10 10s4.5 10 10 10h59.9c5.5 0 10-4.5 10-10S321.4 308 315.9 308z"/><path d="M400 368H256c-5.5 0-10 4.5-10 10s4.5 10 10 10h144c5.5 0 10-4.5 10-10S405.5 368 400 368z"/><path d="M365 418.9c-1.9-1.9-4.4-2.9-7.1-2.9s-5.2 1.1-7.1 2.9c-1.9 1.9-2.9 4.4-2.9 7.1s1.1 5.2 2.9 7.1 4.4 2.9 7.1 2.9 5.2-1.1 7.1-2.9c1.9-1.9 2.9-4.4 2.9-7.1S366.9 420.8 365 418.9z"/><path d="M315.9 416h-59.9c-5.5 0-10 4.5-10 10s4.5 10 10 10h59.9c5.5 0 10-4.5 10-10S321.4 416 315.9 416z"/><path d="M419.2 39h-76.4C331.8 28.5 316.9 22 300.5 22h-8.8C285 8.7 271.3 0 256 0s-29 8.7-35.7 22H211.5c-16.4 0-31.3 6.5-42.4 17H92.8c-26.9 0-48.8 21.9-48.8 48.8v375.5c0 26.9 21.9 48.8 48.8 48.8h326.5c26.9 0 48.8-21.9 48.8-48.8V87.8C468 60.9 446.1 39 419.2 39zM211.5 42h15.6c4.5 0 8.4-3 9.6-7.3C239.1 26 247 20 256 20c9 0 16.9 6 19.3 14.7 1.2 4.3 5.1 7.3 9.6 7.3h15.6c21.7 0 39.6 16.8 41.4 38H170.1C171.9 58.8 189.8 42 211.5 42zM448 463.2c0 15.9-12.9 28.8-28.8 28.8H92.8c-15.9 0-28.8-12.9-28.8-28.8V87.8c0-15.9 12.9-28.8 28.8-28.8h62.3c-3.3 7.5-5.1 15.8-5.1 24.5v6.5c0 5.5 4.5 10 10 10H352c5.5 0 10-4.5 10-10v-6.5c0-8.7-1.8-17-5.1-24.5h62.4c15.9 0 28.8 12.9 28.8 28.8V463.2z"/><path d="M192.4 149.6c-3.9-3.9-10.2-3.9-14.1 0l-42.8 42.8 -13.2-13.2c-3.9-3.9-10.2-3.9-14.1 0 -3.9 3.9-3.9 10.2 0 14.1l20.2 20.2c2 2 4.5 2.9 7.1 2.9 2.6 0 5.1-1 7.1-2.9l49.8-49.8C196.3 159.8 196.3 153.5 192.4 149.6z"/><path d="M168 368h-48c-5.5 0-10 4.5-10 10v48c0 5.5 4.5 10 10 10h48c5.5 0 10-4.5 10-10v-48C178 372.5 173.5 368 168 368zM158 416h-28v-28h28V416z"/><path d="M168 260h-48c-5.5 0-10 4.5-10 10v48c0 5.5 4.5 10 10 10h48c5.5 0 10-4.5 10-10v-48C178 264.5 173.5 260 168 260zM158 308h-28v-28h28V308z"/></svg>